# xmcd
#
# Track frame offsets:
#	150
#	10918
#	24088
#	35311
#	48434
#	59939
#	71093
#	82533
#	90897
#	102848
#	114942
#	128757
#
# Disc length: 1896 seconds
#
# Revision: 1
# Processed by: cddbd v1.5.2PL0 Copyright (c) Steve Scherf et al.
# Submitted via: audiograbber 1.83.01
#
DISCID=8607660c
DTITLE=Various Artist - Santa Claus Goes Country
DYEAR=2006
DGENRE=Christmas
TTITLE0=Hank Snow - The Reindeer Boogie
TTITLE1=Gene Autry - Frosty the Snowman
TTITLE2=Gene Autry - Where Did My Snowman Go?
TTITLE3=Tex Ritter - Is There a Santa Claus?
TTITLE4=Bob Wills and His Texas Playboys - Santa's on His Way
TTITLE5=Kenny Roberts - He'll Be Coming Down the Chimney
TTITLE6=Gene Autry - Here Comes Santa Claus
TTITLE7=Tennessee Ernie Ford - A Rootin' Tootin' Santa Claus
TTITLE8=Jimmy Wakely - If Santa Claus Could Bring You Back to Me
TTITLE9=Johnis and Jack - From the Manger to the Cross
TTITLE10=Hank Snow - Christmas Rose
TTITLE11=Eddy Arnold - Will Santy Come to Shanty Town?
EXTD=
EXTT0=
EXTT1=
EXTT2=
EXTT3=
EXTT4=
EXTT5=
EXTT6=
EXTT7=
EXTT8=
EXTT9=
EXTT10=
EXTT11=
PLAYORDER=
